<?xml version="1.0" encoding="utf-8"?>
<svg width="600pt" height="600pt" version="1.1" viewBox="0 0 600 600" xmlns="http://www.w3.org/2000/svg" xmlns:xlink="http://www.w3.org/1999/xlink">
  <g transform="matrix(1, 0, 0, 1, -43.221157, 14.6251)">
    <path d="m257.18 268.54s-8.0742 137.29 82.773 238.23c0 0-98.699 23.477-135.27-92.867-33.309-106 52.492-145.36 52.492-145.36z" style="fill: rgb(255, 206, 28);"/>
    <path d="m369.55 250.43s-7.0352 119.59 72.109 207.53c0 0-85.984 20.449-117.84-80.902-29.02-92.332 45.727-126.63 45.727-126.63z" style="fill: rgb(255, 206, 28);"/>
    <path d="m161.29 355.05s-5.4648 92.914 56.02 161.23c0 0-58.547 3.6094-83.531-65.535-18.613-51.523 27.512-95.695 27.512-95.695z" style="fill: rgb(255, 206, 28);"/>
    <path d="m464.62 214.53s-202.9-254.38-342.2-142.33c-139.3 112.05 342.2 142.33 342.2 142.33z" style="fill: rgb(255, 206, 28);"/>
    <path d="m598 313.34c0 34.742-28.164 62.902-62.906 62.902-34.742 0-62.906-28.16-62.906-62.902 0-34.742 28.164-62.906 62.906-62.906 34.742 0 62.906 28.164 62.906 62.906" style="fill: rgb(255, 206, 28);"/>
    <use transform="matrix(1, 0, 0, 1, 70, 644)" style="fill: rgb(255, 206, 28);" xlink:href="#w"/>
    <use transform="matrix(1, 0, 0, 1, 90.55078125, 644)" style="fill: rgb(255, 206, 28);" xlink:href="#c"/>
    <use transform="matrix(1, 0, 0, 1, 104.359375, 644)" style="fill: rgb(255, 206, 28);" xlink:href="#a"/>
    <use transform="matrix(1, 0, 0, 1, 123.34765625, 644)" style="fill: rgb(255, 206, 28);" xlink:href="#e"/>
    <use transform="matrix(1, 0, 0, 1, 142.2421875, 644)" style="fill: rgb(255, 206, 28);" xlink:href="#b"/>
    <use transform="matrix(1, 0, 0, 1, 155.62890625, 644)" style="fill: rgb(255, 206, 28);" xlink:href="#a"/>
    <use transform="matrix(1, 0, 0, 1, 174.6171875, 644)" style="fill: rgb(255, 206, 28);" xlink:href="#i"/>
    <use transform="matrix(1, 0, 0, 1, 204.41015625, 644)" style="fill: rgb(255, 206, 28);" xlink:href="#h"/>
    <use transform="matrix(1, 0, 0, 1, 224.453125, 644)" style="fill: rgb(255, 206, 28);" xlink:href="#g"/>
    <use transform="matrix(1, 0, 0, 1, 252.453125, 644)" style="fill: rgb(255, 206, 28);" xlink:href="#f"/>
    <use transform="matrix(1, 0, 0, 1, 274.12109375, 644)" style="fill: rgb(255, 206, 28);" xlink:href="#v"/>
    <use transform="matrix(1, 0, 0, 1, 283.71875, 644)" style="fill: rgb(255, 206, 28);" xlink:href="#a"/>
    <use transform="matrix(1, 0, 0, 1, 302.7109375, 644)" style="fill: rgb(255, 206, 28);" xlink:href="#u"/>
    <use transform="matrix(1, 0, 0, 1, 330.515625, 644)" style="fill: rgb(255, 206, 28);" xlink:href="#t"/>
    <use transform="matrix(1, 0, 0, 1, 349.6171875, 644)" style="fill: rgb(255, 206, 28);" xlink:href="#e"/>
    <use transform="matrix(1, 0, 0, 1, 368.51171875, 644)" style="fill: rgb(255, 206, 28);" xlink:href="#s"/>
    <use transform="matrix(1, 0, 0, 1, 70, 672)" style="fill: rgb(255, 206, 28);" xlink:href="#r"/>
    <use transform="matrix(1, 0, 0, 1, 82.18359375, 672)" style="fill: rgb(255, 206, 28);" xlink:href="#c"/>
    <use transform="matrix(1, 0, 0, 1, 95.9921875, 672)" style="fill: rgb(255, 206, 28);" xlink:href="#d"/>
    <use transform="matrix(1, 0, 0, 1, 115.2265625, 672)" style="fill: rgb(255, 206, 28);" xlink:href="#q"/>
    <use transform="matrix(1, 0, 0, 1, 154.15234375, 672)" style="fill: rgb(255, 206, 28);" xlink:href="#b"/>
    <use transform="matrix(1, 0, 0, 1, 167.53515625, 672)" style="fill: rgb(255, 206, 28);" xlink:href="#p"/>
    <use transform="matrix(1, 0, 0, 1, 187.46875, 672)" style="fill: rgb(255, 206, 28);" xlink:href="#a"/>
    <use transform="matrix(1, 0, 0, 1, 216.20703125, 672)" style="fill: rgb(255, 206, 28);" xlink:href="#o"/>
    <use transform="matrix(1, 0, 0, 1, 239.640625, 672)" style="fill: rgb(255, 206, 28);" xlink:href="#d"/>
    <use transform="matrix(1, 0, 0, 1, 258.87890625, 672)" style="fill: rgb(255, 206, 28);" xlink:href="#n"/>
    <use transform="matrix(1, 0, 0, 1, 278.8125, 672)" style="fill: rgb(255, 206, 28);" xlink:href="#m"/>
    <use transform="matrix(1, 0, 0, 1, 308.4921875, 672)" style="fill: rgb(255, 206, 28);" xlink:href="#l"/>
    <use transform="matrix(1, 0, 0, 1, 329.015625, 672)" style="fill: rgb(255, 206, 28);" xlink:href="#c"/>
    <use transform="matrix(1, 0, 0, 1, 342.8203125, 672)" style="fill: rgb(255, 206, 28);" xlink:href="#d"/>
    <use transform="matrix(1, 0, 0, 1, 362.05859375, 672)" style="fill: rgb(255, 206, 28);" xlink:href="#k"/>
    <use transform="matrix(1, 0, 0, 1, 371.65625, 672)" style="fill: rgb(255, 206, 28);" xlink:href="#a"/>
    <use transform="matrix(1, 0, 0, 1, 390.6484375, 672)" style="fill: rgb(255, 206, 28);" xlink:href="#j"/>
    <use transform="matrix(1, 0, 0, 1, 407.2421875, 672)" style="fill: rgb(255, 206, 28);" xlink:href="#b"/>
  </g>
</svg>